<?xml version="1.0" encoding="UTF-8" standalone="no"?>
<svg width="316px" height="86px" viewBox="0 0 316 86" version="1.1" xmlns="http://www.w3.org/2000/svg" xmlns:xlink="http://www.w3.org/1999/xlink">
    <!-- Generator: Sketch 47.1 (45422) - http://www.bohemiancoding.com/sketch -->
    <title>HSBC_MASTERBRAND_LOGO_RGB</title>
    <desc>Created with Sketch.</desc>
    <defs></defs>
    <g id="Page-1" stroke="none" stroke-width="1" fill="none" fill-rule="evenodd">
        <g id="HSBC_MASTERBRAND_LOGO_RGB" fill-rule="nonzero">
            <rect id="Rectangle-path" fill="#FFFFFF" x="42.6" y="0" width="85" height="85"></rect>
            <polygon id="Shape" fill="#DB0011" points="170.1 42.6 127.6 0 127.6 85.1"></polygon>
            <polygon id="Shape" fill="#DB0011" points="85.1 42.6 127.6 0 42.6 0"></polygon>
            <polygon id="Shape" fill="#DB0011" points="0 42.6 42.6 85.1 42.6 0"></polygon>
            <polygon id="Shape" fill="#DB0011" points="85.1 42.6 42.6 85.1 127.6 85.1"></polygon>
            <polygon id="Shape" fill="#000000" points="207.4 45.1 192 45.1 192 60.3 184.3 60.3 184.3 24.7 192 24.7 192 39.3 207.4 39.3 207.4 24.7 215.1 24.7 215.1 60.3 207.4 60.3"></polygon>
            <path d="M233.7,61 C226,61 219.7,57.9 219.6,49.4 L227.3,49.4 C227.4,53.2 229.6,55.5 233.8,55.5 C236.9,55.5 240.5,53.9 240.5,50.4 C240.5,47.6 238.1,46.8 234.1,45.6 L231.5,44.9 C225.9,43.3 220.3,41.1 220.3,34.7 C220.3,26.8 227.7,24.1 234.4,24.1 C241.3,24.1 247.3,26.5 247.4,34.4 L239.7,34.4 C239.4,31.2 237.5,29.3 233.9,29.3 C231,29.3 228.2,30.8 228.2,34 C228.2,36.6 230.6,37.4 235.6,39 L238.6,39.9 C244.7,41.8 248.6,43.9 248.6,49.9 C248.5,57.9 240.7,61 233.7,61 Z" id="Shape" fill="#000000"></path>
            <path d="M252.9,24.8 L265.3,24.8 C267.6,24.7 270,24.8 272.3,25.2 C276.6,26.2 279.9,29 279.9,33.8 C279.9,38.4 277,40.7 272.8,41.8 C277.6,42.7 281.2,45.1 281.2,50.4 C281.2,58.5 273.2,60.3 267,60.3 L253,60.3 L252.9,24.8 Z M265.3,39.6 C268.7,39.6 272.2,38.9 272.2,34.8 C272.2,31.1 269,30.1 265.8,30.1 L260.4,30.1 L260.4,39.6 L265.3,39.6 Z M266,55 C269.6,55 273.1,54.2 273.1,49.8 C273.1,45.4 270.1,44.6 266.4,44.6 L260.3,44.6 L260.3,55 L266,55 Z" id="Shape" fill="#000000"></path>
            <path d="M301.2,61 C289.7,61 284.6,53.7 284.6,42.8 C284.6,31.9 290.3,24 301.6,24 C308.7,24 315.6,27.2 315.8,35.2 L307.8,35.2 C307.4,31.6 305,29.8 301.6,29.8 C294.6,29.8 292.5,37.3 292.5,43 C292.5,48.7 294.6,55.3 301.3,55.3 C304.8,55.3 307.4,53.4 307.9,49.8 L315.9,49.8 C315.1,58 308.6,61 301.2,61 Z" id="Shape" fill="#000000"></path>
        </g>
    </g>
</svg>
